HIERARCHY
ROOT SimulationBone
{
	OFFSET 0.000000 0.000000 0.000000
	CHANNELS 6 Xposition Yposition Zposition Zrotation Yrotation Xrotation 
	JOINT Hips
	{
		OFFSET 0.000000 0.000000 0.000000
		CHANNELS 6 Xposition Yposition Zposition Zrotation Yrotation Xrotation 
		JOINT LeftUpLeg
		{
			OFFSET 0.103460 1.857825 10.548519
			CHANNELS 3 Zrotation Yrotation Xrotation
			JOINT LeftLeg
			{
				OFFSET 43.500008 -0.000019 0.000016
				CHANNELS 3 Zrotation Yrotation Xrotation
				JOINT LeftFoot
				{
					OFFSET 42.372192 0.000004 0.000011
					CHANNELS 3 Zrotation Yrotation Xrotation
					JOINT LeftToe
					{
						OFFSET 17.300001 0.000001 -0.000016
						CHANNELS 3 Zrotation Yrotation Xrotation
						End Site
						{
							OFFSET 0.000000 0.000000 0.000000
						}
					}
				}
			}
		}
		JOINT RightUpLeg
		{
			OFFSET 0.103460 1.857824 -10.548484
			CHANNELS 3 Zrotation Yrotation Xrotation
			JOINT RightLeg
			{
				OFFSET 43.500046 -0.000008 0.000031
				CHANNELS 3 Zrotation Yrotation Xrotation
				JOINT RightFoot
				{
					OFFSET 42.372261 0.000000 0.000010
					CHANNELS 3 Zrotation Yrotation Xrotation
					JOINT RightToe
					{
						OFFSET 17.299986 -0.000007 0.000010
						CHANNELS 3 Zrotation Yrotation Xrotation
						End Site
						{
							OFFSET 0.000000 0.000000 0.000000
						}
					}
				}
			}
		}
		JOINT Spine
		{
			OFFSET 6.901969 -2.603749 -0.000000
			CHANNELS 3 Zrotation Yrotation Xrotation
			JOINT Spine1
			{
				OFFSET 12.588099 0.000014 -0.000003
				CHANNELS 3 Zrotation Yrotation Xrotation
				JOINT Spine2
				{
					OFFSET 12.343207 0.000019 0.000011
					CHANNELS 3 Zrotation Yrotation Xrotation
					JOINT Neck
					{
						OFFSET 25.832890 -0.000025 -0.000002
						CHANNELS 3 Zrotation Yrotation Xrotation
						JOINT Head
						{
							OFFSET 11.766609 0.000013 -0.000004
							CHANNELS 3 Zrotation Yrotation Xrotation
							End Site
							{
								OFFSET 0.000000 0.000000 0.000000
							}
						}
					}
					JOINT LeftShoulder
					{
						OFFSET 19.745899 -1.480392 6.000105
						CHANNELS 3 Zrotation Yrotation Xrotation
						JOINT LeftArm
						{
							OFFSET 11.284097 -0.000017 -0.000023
							CHANNELS 3 Zrotation Yrotation Xrotation
							JOINT LeftForeArm
							{
								OFFSET 33.000065 -0.000020 0.000044
								CHANNELS 3 Zrotation Yrotation Xrotation
								JOINT LeftHand
								{
									OFFSET 25.200005 0.000023 0.000007
									CHANNELS 3 Zrotation Yrotation Xrotation
									End Site
									{
										OFFSET 0.000000 0.000000 0.000000
									}
								}
							}
						}
					}
					JOINT RightShoulder
					{
						OFFSET 19.746096 -1.480391 -6.000090
						CHANNELS 3 Zrotation Yrotation Xrotation
						JOINT RightArm
						{
							OFFSET 11.284126 -0.000026 -0.000012
							CHANNELS 3 Zrotation Yrotation Xrotation
							JOINT RightForeArm
							{
								OFFSET 33.000092 0.000010 0.000014
								CHANNELS 3 Zrotation Yrotation Xrotation
								JOINT RightHand
								{
									OFFSET 25.199760 0.000151 0.000418
									CHANNELS 3 Zrotation Yrotation Xrotation
									End Site
									{
										OFFSET 0.000000 0.000000 0.000000
									}
								}
							}
						}
					}
				}
			}
		}
	}
}
MOTION
Frames: 5
Frame Time: 0.033333
-106.188635 0.000000 -544.553265 0.000000 -13.769970 0.000000 -5.698425 91.179733 2.210340 83.103310 2.054652 -178.188811 170.194012 3.006390 167.263533 -23.609751 5.680953 -4.897162 93.642788 2.680106 -4.617082 21.454560 0.003109 0.000017 142.218718 8.041594 -169.088614 -40.819461 -2.140520 7.105742 74.178894 -5.075250 -0.157696 21.454551 -0.003092 0.000001 7.753170 -0.538503 -1.464767 5.506718 -1.007048 -2.953450 5.189026 -1.024993 -2.947327 5.634022 7.517053 5.542707 -30.688887 6.095213 4.147799 167.555906 -80.584744 11.121100 -3.143071 57.273704 13.343759 -73.875469 -6.925111 2.129092 -8.309675 -7.792181 14.645881 -131.814742 83.235547 50.262522 42.001644 -62.868039 -53.389516 -105.347902 -0.164686 -2.974673 -8.438288 4.207959 -46.972109 
-105.118488 0.000000 -543.131798 0.000000 -13.683809 0.000000 -5.763000 90.932617 1.594448 83.093014 1.689810 -178.494804 171.167778 3.004591 167.268587 -23.525422 5.718347 -5.005217 94.371665 2.682343 -5.426885 21.454557 0.003109 0.000017 142.638911 8.053498 -168.839476 -36.880115 -1.152281 6.074841 74.215148 -4.441120 -0.376712 21.454551 -0.003090 -0.000002 7.752547 -0.544385 -1.571459 5.506491 -1.013759 -3.166999 5.188861 -1.032991 -3.160835 5.328377 7.972241 5.639278 -30.789595 5.090395 4.853742 164.295925 -80.927189 14.412114 -6.415163 58.356522 8.906681 -74.613670 -7.061288 2.169458 -7.936032 -8.076636 11.706880 -132.072431 83.037028 50.013442 42.515110 -62.041812 -53.823011 -106.312700 -0.446729 -2.997342 -7.407945 3.726056 -45.752456 
-103.972468 0.000000 -541.746298 0.000000 -13.659562 0.000000 -5.811211 90.624207 0.948056 82.920021 0.910301 -178.778127 172.231266 3.576600 167.773639 -23.089687 5.631572 -5.429211 94.995787 2.910210 -6.211086 21.454557 0.003108 0.000017 143.347830 8.553603 -167.559594 -32.566868 -0.327033 4.922296 73.961106 -3.601022 -0.220155 21.454553 -0.003099 -0.000002 7.676370 -0.644358 -1.657601 5.357903 -1.211700 -3.343254 5.040309 -1.231992 -3.335890 5.014967 7.607734 5.812106 -30.577299 5.087211 4.997493 161.946039 -80.867418 16.794937 -10.190168 58.579356 4.941119 -74.330326 -7.378416 2.179518 -7.880198 -8.462679 10.928063 -129.989947 82.849798 52.125463 43.230671 -61.634282 -54.520066 -106.353217 -0.487983 -2.996248 -7.482589 3.918642 -45.689488 
-102.753887 0.000000 -540.396306 0.000000 -13.695689 0.000000 -5.782723 90.283508 0.470543 82.753218 0.093235 -179.056148 173.384325 3.989396 168.025563 -22.675367 5.403022 -5.670380 95.647428 3.036299 -6.919517 21.454558 0.003109 0.000017 144.537731 8.458495 -163.650445 -28.107565 -1.459929 3.618046 73.699305 -2.387092 0.658278 21.454550 -0.003091 0.000000 7.554792 -0.774892 -1.705845 5.119367 -1.474027 -3.444341 4.801775 -1.494924 -3.435395 5.050564 7.610554 6.076535 -30.308657 4.850472 5.404150 158.982898 -80.728752 19.803025 -13.516885 58.422952 1.749131 -72.977190 -7.706904 2.145731 -7.704334 -8.638894 11.730873 -127.941533 82.505953 54.213004 43.816913 -61.392534 -55.215748 -105.800300 -0.319785 -2.983725 -7.877156 3.725624 -47.037935 
-101.466056 0.000000 -539.081364 0.000000 -13.790636 0.000000 -5.744543 90.001709 0.177452 82.558272 -0.306234 -179.353934 174.385726 3.862594 167.312000 -22.462165 5.512456 -5.358660 96.290224 2.805939 -7.487661 21.454557 0.003111 0.000017 145.809663 7.446303 -158.647905 -24.650513 -3.449193 1.662343 72.384316 -1.402408 -0.754820 21.454551 -0.003088 0.000001 7.394232 -0.838268 -1.715926 4.800407 -1.605147 -3.465205 4.482800 -1.626168 -3.455469 5.407907 7.887929 6.412218 -30.016264 4.544793 5.951318 155.561998 -80.478166 23.280078 -15.436748 58.114371 -0.123473 -71.169191 -8.210951 2.105812 -6.860981 -7.408814 13.224611 -129.261713 82.167893 52.900283 44.154847 -61.181406 -55.349005 -105.175706 -0.041443 -2.975685 -7.781693 2.592283 -48.571459 
